<svg width="506" height="92" viewBox="0 0 506 92" fill="none" xmlns="http://www.w3.org/2000/svg">
<path d="M46 82.225C46 84.448 44.1934 86.2709 41.9816 86.0489C35.4407 85.3927 29.1381 83.1415 23.6383 79.4667C17.0192 75.0439 11.8603 68.7577 8.81387 61.403C5.76744 54.0483 4.97036 45.9554 6.52341 38.1476C8.07647 30.3399 11.9099 23.168 17.539 17.539C23.168 11.9099 30.3399 8.07646 38.1476 6.52341C45.9554 4.97036 54.0483 5.76744 61.403 8.81387C68.7578 11.8603 75.0439 17.0192 79.4667 23.6383C83.1415 29.1381 85.3927 35.4407 86.0489 41.9816C86.2709 44.1934 84.448 46 82.225 46V46C80.0021 46 78.2259 44.191 77.9488 41.9854C77.3273 37.0394 75.5631 32.2859 72.7733 28.1107C69.2352 22.8154 64.2062 18.6882 58.3224 16.2511C52.4386 13.814 45.9643 13.1763 39.7181 14.4187C33.4719 15.6612 27.7344 18.7279 23.2312 23.2312C18.7279 27.7344 15.6612 33.4719 14.4187 39.7181C13.1763 45.9643 13.814 52.4386 16.2511 58.3224C18.6882 64.2062 22.8154 69.2352 28.1107 72.7733C32.2859 75.5631 37.0394 77.3273 41.9854 77.9488C44.191 78.2259 46 80.0021 46 82.225V82.225Z" fill="#0A5DF5"/>
<path fill-rule="evenodd" clip-rule="evenodd" d="M70.8811 49.8738C69.7147 44.6855 62.416 44.7179 61.2942 49.9163L61.2515 50.1146L61.1682 50.4994C59.9448 56.0557 55.539 60.3194 50.0046 61.2959C44.6651 62.2381 44.6652 70.0119 50.0046 70.9541C55.5583 71.9339 59.9755 76.2241 61.1809 81.809L61.2942 82.3337C62.416 87.5321 69.7147 87.5645 70.8811 82.3762L71.019 81.7647C72.27 76.1998 76.6939 71.941 82.2386 70.9627C87.5871 70.0189 87.5871 62.2311 82.2386 61.2873C76.7234 60.3142 72.317 56.0952 71.039 50.5738C71.0033 50.4195 70.9701 50.272 70.9344 50.1114L70.8811 49.8738Z" fill="url(#paint0_linear_5_98)"/>
<path d="M479.893 65.4765V36.9933H488.045V42.1821H488.375C488.706 41.3725 489.11 40.6181 489.587 39.9189C490.064 39.2197 490.633 38.6125 491.294 38.0973C491.992 37.5453 492.781 37.1221 493.663 36.8277C494.581 36.4965 495.609 36.3309 496.747 36.3309C498.106 36.3309 499.354 36.5701 500.492 37.0485C501.631 37.4901 502.604 38.1709 503.411 39.0909C504.219 40.0109 504.843 41.1333 505.284 42.4581C505.761 43.7829 506 45.3101 506 47.0397V65.4765H497.849V48.1437C497.849 44.4637 496.251 42.6237 493.057 42.6237C492.433 42.6237 491.808 42.7157 491.184 42.8997C490.597 43.0469 490.064 43.3045 489.587 43.6725C489.11 44.0037 488.724 44.4269 488.43 44.9421C488.173 45.4573 488.045 46.0645 488.045 46.7637V65.4765H479.893Z" fill="#08103B"/>
<path d="M475.399 68.3469C475.399 71.3645 474.132 73.5909 471.598 75.0261C469.065 76.4613 465.081 77.1789 459.646 77.1789C456.929 77.1789 454.689 77.0133 452.927 76.6821C451.164 76.3877 449.751 75.9461 448.686 75.3573C447.658 74.7685 446.923 74.0693 446.483 73.2597C446.079 72.4501 445.877 71.5669 445.877 70.6101C445.877 68.9909 446.354 67.7581 447.309 66.9117C448.264 66.1021 449.604 65.4765 451.33 65.0349V64.7037C450.118 64.3357 449.145 63.8205 448.41 63.1581C447.713 62.4589 447.364 61.4837 447.364 60.2325C447.364 58.8341 447.823 57.8037 448.741 57.1413C449.696 56.4789 450.944 55.9637 452.486 55.5957V55.2645C450.797 54.4549 449.475 53.3141 448.521 51.8421C447.603 50.3701 447.144 48.5853 447.144 46.4877C447.144 44.8317 447.437 43.3781 448.025 42.1269C448.612 40.8389 449.439 39.7717 450.503 38.9253C451.605 38.0789 452.909 37.4349 454.414 36.9933C455.919 36.5517 457.608 36.3309 459.481 36.3309C461.28 36.3309 462.951 36.5333 464.493 36.9381V35.3925C464.493 34.2885 464.879 33.3685 465.65 32.6325C466.421 31.8965 467.486 31.5285 468.844 31.5285H473.856V37.4901H467.027V37.9869C468.569 38.7965 469.762 39.9189 470.607 41.3541C471.488 42.7525 471.929 44.4637 471.929 46.4877C471.929 48.1437 471.635 49.5973 471.047 50.8485C470.46 52.0997 469.615 53.1669 468.514 54.0501C467.412 54.8965 466.09 55.5405 464.548 55.9821C463.043 56.4237 461.354 56.6445 459.481 56.6445C458.637 56.6445 457.829 56.6077 457.058 56.5341C456.287 56.4237 455.552 56.2765 454.855 56.0925C454.451 56.3133 454.102 56.5893 453.808 56.9205C453.551 57.2517 453.423 57.6749 453.423 58.1901C453.423 58.6317 453.533 58.9813 453.753 59.2389C453.973 59.4965 454.267 59.6989 454.634 59.8461C455.038 59.9565 455.497 60.0301 456.011 60.0669C456.525 60.1037 457.058 60.1221 457.608 60.1221H464.108C466.127 60.1221 467.853 60.3245 469.285 60.7293C470.717 61.1341 471.892 61.7045 472.81 62.4405C473.728 63.1765 474.389 64.0413 474.793 65.0349C475.197 66.0285 475.399 67.1325 475.399 68.3469ZM467.688 68.9541C467.688 68.2181 467.394 67.6293 466.806 67.1877C466.219 66.7829 465.099 66.5805 463.447 66.5805H453.698C452.964 67.2061 452.596 67.9789 452.596 68.8989C452.596 69.7821 452.964 70.4997 453.698 71.0517C454.469 71.6405 455.754 71.9349 457.553 71.9349H462.345C464.218 71.9349 465.576 71.6773 466.421 71.1621C467.265 70.6469 467.688 69.9109 467.688 68.9541ZM459.481 51.4557C461.133 51.4557 462.327 51.0509 463.061 50.2413C463.832 49.4317 464.218 48.4013 464.218 47.1501V45.8253C464.218 44.5741 463.832 43.5437 463.061 42.7341C462.327 41.9245 461.133 41.5197 459.481 41.5197C457.865 41.5197 456.691 41.9245 455.956 42.7341C455.222 43.5437 454.855 44.5741 454.855 45.8253V47.1501C454.855 48.4013 455.222 49.4317 455.956 50.2413C456.691 51.0509 457.865 51.4557 459.481 51.4557Z" fill="#08103B"/>
<path d="M428.549 33.35C426.713 33.35 425.428 32.982 424.694 32.246C423.996 31.4732 423.647 30.5532 423.647 29.486V27.8852C423.647 26.7812 423.996 25.8612 424.694 25.1252C425.428 24.3892 426.713 24.0212 428.549 24.0212C430.385 24.0212 431.652 24.3892 432.349 25.1252C433.084 25.8612 433.451 26.7812 433.451 27.8852V29.486C433.451 30.5532 433.084 31.4732 432.349 32.246C431.652 32.982 430.385 33.35 428.549 33.35ZM415.441 59.1284H424.473V43.3412H415.441V36.9932H432.625V59.1284H440.997V65.4764H415.441V59.1284Z" fill="#08103B"/>
<path d="M393.431 66.1389C390.273 66.1389 387.519 65.6605 385.169 64.7037C382.856 63.7469 381.112 62.4405 379.937 60.7845L384.508 56.5341C385.61 57.7485 386.895 58.7053 388.364 59.4045C389.869 60.0669 391.577 60.3981 393.486 60.3981C395.102 60.3981 396.368 60.1589 397.286 59.6805C398.204 59.1653 398.663 58.3925 398.663 57.3621C398.663 56.5525 398.351 56.0005 397.727 55.7061C397.103 55.3749 396.24 55.1173 395.138 54.9333L390.567 54.2157C389.282 54.0317 388.088 53.7557 386.987 53.3877C385.885 52.9829 384.931 52.4493 384.123 51.7869C383.315 51.1245 382.673 50.3149 382.195 49.3581C381.718 48.4013 381.479 47.2421 381.479 45.8805C381.479 42.8997 382.617 40.5629 384.894 38.8701C387.171 37.1773 390.365 36.3309 394.477 36.3309C397.268 36.3309 399.636 36.7173 401.583 37.4901C403.565 38.2261 405.144 39.2933 406.319 40.6917L402.243 45.3285C401.399 44.4085 400.316 43.6357 398.994 43.0101C397.672 42.3845 396.075 42.0717 394.202 42.0717C391.044 42.0717 389.465 43.0285 389.465 44.9421C389.465 45.7885 389.778 46.3773 390.402 46.7085C391.026 47.0029 391.889 47.2421 392.99 47.4261L397.507 48.1437C398.792 48.3277 399.985 48.6221 401.087 49.0269C402.188 49.3949 403.143 49.9101 403.951 50.5725C404.795 51.2349 405.456 52.0445 405.934 53.0013C406.411 53.9581 406.65 55.1173 406.65 56.4789C406.65 59.4597 405.493 61.8149 403.18 63.5445C400.903 65.2741 397.654 66.1389 393.431 66.1389Z" fill="#08103B"/>
<path d="M361.508 66.1389C356.734 66.1389 353.117 64.8141 350.657 62.1645C348.197 59.5149 346.967 55.9085 346.967 51.3453C346.967 49.0269 347.279 46.9477 347.903 45.1077C348.564 43.2309 349.482 41.6485 350.657 40.3605C351.869 39.0357 353.319 38.0421 355.008 37.3797C356.734 36.6805 358.662 36.3309 360.792 36.3309C362.921 36.3309 364.831 36.6805 366.52 37.3797C368.209 38.0421 369.641 38.9989 370.816 40.2501C371.991 41.5013 372.89 43.0285 373.514 44.8317C374.175 46.5981 374.506 48.5853 374.506 50.7933V53.2221H355.063V53.7189C355.063 55.5589 355.633 57.0493 356.771 58.1901C357.909 59.2941 359.58 59.8461 361.783 59.8461C363.472 59.8461 364.922 59.5333 366.134 58.9077C367.346 58.2453 368.392 57.3805 369.273 56.3133L373.68 61.1157C372.578 62.4773 371.036 63.6549 369.053 64.6485C367.07 65.6421 364.555 66.1389 361.508 66.1389ZM360.847 42.1821C359.084 42.1821 357.67 42.7341 356.606 43.8381C355.578 44.9053 355.063 46.3589 355.063 48.1989V48.6405H366.52V48.1989C366.52 46.3221 366.006 44.8501 364.977 43.7829C363.986 42.7157 362.609 42.1821 360.847 42.1821Z" fill="#08103B"/>
<path d="M314.713 26.9468H327.106C332.283 26.9468 336.12 28.6028 338.617 31.9148C341.114 35.2268 342.362 39.9924 342.362 46.2116C342.362 52.4308 341.114 57.1964 338.617 60.5084C336.12 63.8204 332.283 65.4764 327.106 65.4764H314.713V26.9468ZM326.555 58.9628C329.015 58.9628 330.814 58.1716 331.952 56.5892C333.091 55.0068 333.66 52.7068 333.66 49.6892V42.6788C333.66 39.698 333.091 37.4164 331.952 35.834C330.814 34.2516 329.015 33.4604 326.555 33.4604H322.865V58.9628H326.555Z" fill="#08103B"/>
<path d="M294.686 66.1389C292.63 66.1389 291.143 65.6973 290.225 64.8141C289.344 63.8941 288.903 62.8085 288.903 61.5573V59.6253C288.903 58.3741 289.344 57.3069 290.225 56.4237C291.143 55.5037 292.63 55.0437 294.686 55.0437C296.742 55.0437 298.211 55.5037 299.092 56.4237C300.01 57.3069 300.469 58.3741 300.469 59.6253V61.5573C300.469 62.8085 300.01 63.8941 299.092 64.8141C298.211 65.6973 296.742 66.1389 294.686 66.1389Z" fill="#08103B"/>
<path d="M262.432 66.1389C257.659 66.1389 254.042 64.8141 251.582 62.1645C249.122 59.5149 247.892 55.9085 247.892 51.3453C247.892 49.0269 248.204 46.9477 248.828 45.1077C249.489 43.2309 250.407 41.6485 251.582 40.3605C252.794 39.0357 254.244 38.0421 255.933 37.3797C257.659 36.6805 259.587 36.3309 261.716 36.3309C263.846 36.3309 265.755 36.6805 267.444 37.3797C269.133 38.0421 270.565 38.9989 271.74 40.2501C272.915 41.5013 273.815 43.0285 274.439 44.8317C275.1 46.5981 275.431 48.5853 275.431 50.7933V53.2221H255.988V53.7189C255.988 55.5589 256.557 57.0493 257.696 58.1901C258.834 59.2941 260.505 59.8461 262.708 59.8461C264.397 59.8461 265.847 59.5333 267.059 58.9077C268.271 58.2453 269.317 57.3805 270.198 56.3133L274.604 61.1157C273.503 62.4773 271.961 63.6549 269.978 64.6485C267.995 65.6421 265.48 66.1389 262.432 66.1389ZM261.771 42.1821C260.009 42.1821 258.595 42.7341 257.53 43.8381C256.502 44.9053 255.988 46.3589 255.988 48.1989V48.6405H267.444V48.1989C267.444 46.3221 266.93 44.8501 265.902 43.7829C264.911 42.7157 263.534 42.1821 261.771 42.1821Z" fill="#08103B"/>
<path d="M230.839 65.4764C227.902 65.4764 225.717 64.7036 224.285 63.158C222.853 61.6124 222.137 59.6436 222.137 57.2516V43.3412H214.426V36.9932H219.438C220.65 36.9932 221.513 36.754 222.027 36.2756C222.541 35.7972 222.798 34.914 222.798 33.626V26.9468H230.289V36.9932H241.359V43.3412H230.289V59.1284H241.359V65.4764H230.839Z" fill="#08103B"/>
<path d="M205.911 65.4765C204.222 65.4765 202.863 65.0533 201.835 64.2069C200.807 63.3237 200.201 62.0725 200.017 60.4533H199.742C199.228 62.3301 198.2 63.7469 196.658 64.7037C195.152 65.6605 193.298 66.1389 191.095 66.1389C188.341 66.1389 186.119 65.4029 184.43 63.9309C182.778 62.4221 181.952 60.3245 181.952 57.6381C181.952 54.6573 183.035 52.4493 185.201 51.0141C187.368 49.5789 190.544 48.8613 194.73 48.8613H199.301V47.4261C199.301 45.7333 198.897 44.4637 198.09 43.6173C197.319 42.7341 195.997 42.2925 194.124 42.2925C192.398 42.2925 191.003 42.6237 189.938 43.2861C188.873 43.9485 187.955 44.8133 187.184 45.8805L182.723 41.9061C183.678 40.2869 185.165 38.9621 187.184 37.9317C189.241 36.8645 191.866 36.3309 195.06 36.3309C198.953 36.3309 201.982 37.2325 204.148 39.0357C206.351 40.8021 207.453 43.4885 207.453 47.0949V59.5701H210.592V65.4765H205.911ZM194.179 60.7845C195.611 60.7845 196.823 60.4349 197.814 59.7357C198.806 59.0365 199.301 58.0245 199.301 56.6997V53.2773H194.95C191.609 53.2773 189.938 54.3997 189.938 56.6445V57.7485C189.938 58.7421 190.324 59.4965 191.095 60.0117C191.866 60.5269 192.894 60.7845 194.179 60.7845Z" fill="#08103B"/>
<path d="M149.808 59.1284H158.51V30.9764H149.808V24.6284H166.662V59.1284H175.364V65.4764H149.808V59.1284Z" fill="#08103B"/>
<path d="M128.955 66.1388C125.724 66.1388 122.915 65.6052 120.528 64.538C118.142 63.4708 116.214 62.0172 114.745 60.1772L119.537 54.878C120.932 56.4236 122.456 57.5644 124.108 58.3004C125.797 59.0364 127.505 59.4044 129.231 59.4044C131.213 59.4044 132.719 58.9628 133.747 58.0796C134.775 57.1964 135.289 55.9268 135.289 54.2708C135.289 52.9092 134.885 51.8788 134.077 51.1796C133.306 50.4804 131.985 49.9836 130.112 49.6892L126.091 49.0268C122.64 48.438 120.143 47.1684 118.601 45.218C117.058 43.2308 116.287 40.8204 116.287 37.9868C116.287 34.27 117.499 31.3996 119.923 29.3756C122.346 27.3148 125.742 26.2844 130.112 26.2844C133.086 26.2844 135.675 26.7444 137.878 27.6644C140.081 28.5844 141.862 29.8356 143.22 31.418L138.539 36.662C137.511 35.5212 136.299 34.638 134.904 34.0124C133.508 33.35 131.929 33.0188 130.167 33.0188C126.458 33.0188 124.604 34.546 124.604 37.6004C124.604 38.9252 125.008 39.9188 125.816 40.5812C126.66 41.2436 128.019 41.7404 129.892 42.0716L133.912 42.7892C137.033 43.3412 139.438 44.5188 141.127 46.322C142.816 48.1252 143.661 50.554 143.661 53.6084C143.661 55.4116 143.349 57.086 142.725 58.6316C142.1 60.1404 141.164 61.4652 139.916 62.606C138.667 63.71 137.125 64.5748 135.289 65.2004C133.49 65.826 131.379 66.1388 128.955 66.1388Z" fill="#08103B"/>
<defs>
<linearGradient id="paint0_linear_5_98" x1="66.125" y1="41.3773" x2="66.125" y2="90.8727" gradientUnits="userSpaceOnUse">
<stop stop-color="#D54BF6"/>
<stop offset="1" stop-color="#4B10D1"/>
</linearGradient>
</defs>
</svg>
